<svg width="1588.000000pt" height="1133.000000pt" viewBox="0 0 1588.000000 1133.000000" xmlns="http://www.w3.org/2000/svg">
  <g transform="translate(0.000000,1133.000000) scale(0.100000,-0.100000)" fill="#fefefe" stroke="none">
    <path d="M0 5665 l0 -5665 7940 0 7940 0 0 5665 0 5665 -7940 0 -7940 0 0
-5665z m8325 1756 c359 -26 755 -72 965 -113 30 -6 78 -14 105 -18 99 -15 177
-32 385 -85 30 -8 87 -21 125 -31 77 -18 88 -21 325 -95 91 -29 169 -56 174
-60 6 -5 19 -9 30 -9 12 0 30 -7 40 -15 11 -8 26 -15 34 -15 8 0 30 -7 50 -16
255 -112 519 -253 589 -314 7 -5 15 -10 18 -10 10 0 105 -74 105 -82 0 -4 5
-8 10 -8 15 0 169 -157 221 -225 289 -379 167 -837 -309 -1165 -21 -14 -39
-29 -41 -33 -2 -5 -13 -13 -25 -18 -23 -11 -46 -24 -86 -51 -65 -43 -268 -147
-385 -197 -27 -12 -63 -28 -78 -36 -16 -8 -34 -15 -40 -15 -7 0 -25 -7 -42
-16 -41 -21 -173 -67 -330 -115 -71 -22 -143 -43 -160 -49 -16 -5 -59 -16 -95
-25 -36 -9 -88 -23 -116 -31 -28 -8 -59 -14 -69 -14 -10 0 -41 -6 -69 -14 -28
-8 -89 -22 -136 -31 -47 -9 -116 -23 -155 -31 -38 -8 -81 -14 -95 -14 -13 0
-58 -6 -100 -14 -191 -37 -558 -79 -865 -98 l-200 -13 -420 0 -420 0 -195 13
c-371 24 -811 78 -1045 127 -38 9 -80 15 -93 15 -12 0 -48 6 -80 14 -31 8 -93
22 -137 31 -135 28 -236 54 -455 118 -121 36 -308 100 -395 137 -42 17 -61 26
-130 54 -33 13 -109 50 -170 80 -60 31 -116 56 -122 56 -7 0 -13 4 -13 9 0 5
-9 13 -21 16 -11 4 -40 20 -64 36 -24 16 -46 29 -50 29 -3 0 -12 6 -20 13 -7
6 -59 45 -114 86 -56 41 -101 78 -101 83 0 4 -4 8 -10 8 -12 0 -110 98 -110
110 0 6 -4 10 -8 10 -5 0 -27 26 -50 58 -23 31 -45 62 -50 67 -7 9 -27 45 -64
118 -5 10 -18 46 -28 80 l-20 62 0 115 0 115 20 64 c12 36 24 69 29 75 4 6 11
23 15 39 3 15 11 27 16 27 6 0 10 6 10 13 0 13 78 121 130 181 134 153 339
298 617 436 92 45 184 90 203 98 19 8 44 19 54 25 11 5 31 13 45 17 14 5 51
18 81 30 30 12 69 25 85 30 28 8 53 16 135 45 129 46 535 150 735 189 392 75
801 125 1195 147 113 6 212 12 220 14 35 8 869 -3 1015 -14z m-1185 -3296 l0
-15 19 0 c11 0 23 5 26 10 8 13 124 13 164 -1 l31 -11 0 -24 0 -24 -40 0 -40
0 0 -14 c0 -7 15 -21 34 -30 48 -23 60 -83 22 -108 -14 -9 -122 -10 -165 -2
l-31 7 0 33 0 34 45 0 45 0 0 -15 0 -15 20 0 20 0 0 25 0 25 -17 1 c-10 0 -38
10 -63 22 l-45 22 -3 28 -3 27 -55 0 -54 0 0 -30 0 -30 35 0 35 0 0 -20 0 -20
-35 0 -35 0 0 -25 0 -25 40 0 40 0 0 -20 0 -20 -86 0 -86 0 7 98 c4 53 9 105
11 115 l5 17 80 0 79 0 0 -15z m1505 -9 l15 -23 -6 -17 c-3 -9 -10 -16 -15
-16 -15 0 -10 -40 6 -46 l15 -6 0 -39 0 -38 -19 -11 c-11 -5 -54 -10 -95 -10
l-75 0 -11 19 c-5 11 -10 27 -10 35 l0 16 45 0 45 0 0 -15 0 -15 21 0 20 0 -3
28 -3 27 -22 3 -23 3 0 19 0 18 20 5 20 5 0 21 0 21 -14 0 c-8 0 -16 -4 -18
-8 -1 -5 -22 -12 -45 -16 l-43 -6 0 19 c0 11 10 27 22 35 l22 16 68 0 68 0 15
-24z m-250 2 l25 -11 0 -42 0 -41 -35 -31 c-19 -17 -35 -36 -35 -42 l0 -11 34
0 34 0 6 -16 c9 -22 14 -21 -101 -26 l-103 -5 0 29 c0 15 5 28 10 28 17 0 100
92 100 112 l0 18 -20 0 -20 0 0 -15 0 -15 -40 0 -40 0 0 24 c0 49 115 76 185
44z m-785 -18 l0 -20 -30 0 -30 0 0 -95 0 -95 -45 0 -45 0 0 95 0 95 -25 0
-25 0 0 20 0 20 100 0 100 0 0 -20z m321 -1 c5 -8 9 -29 9 -48 l0 -33 -35 -32
c-19 -18 -35 -38 -35 -44 l0 -12 35 0 35 0 0 -20 0 -20 -105 0 -105 0 0 18 0
18 46 40 c25 21 52 43 60 47 8 4 14 19 14 32 l0 25 -15 0 c-8 0 -15 -7 -15
-15 l0 -15 -45 0 -45 0 0 23 c0 48 23 57 124 53 l68 -3 9 -14z m237 8 c6 -7
12 -52 14 -101 l3 -88 -20 -14 -19 -14 -69 0 c-37 0 -77 5 -88 10 l-19 11 0
99 0 99 18 4 c9 3 51 5 93 6 l77 1 10 -13z m-528 -192 l0 -25 -30 0 -30 0 0
25 0 25 30 0 30 0 0 -25z" />
    <path d="M7500 7394 c-36 -2 -175 -8 -310 -14 -319 -14 -715 -51 -905 -86 -44
-8 -91 -14 -105 -14 -14 0 -70 -9 -125 -21 -55 -11 -134 -27 -175 -35 -196
-39 -493 -111 -595 -146 -16 -5 -46 -14 -65 -18 -39 -9 -87 -25 -138 -46 -18
-8 -41 -14 -52 -14 -10 0 -21 -4 -25 -9 -3 -5 -20 -13 -38 -17 -31 -6 -55 -16
-142 -55 -22 -10 -55 -24 -74 -31 -167 -63 -498 -256 -628 -365 -112 -93 -233
-225 -233 -252 0 -6 -3 -11 -8 -11 -12 0 -80 -139 -102 -210 l-20 -65 0 -96 0
-96 21 -67 c98 -313 463 -628 964 -832 33 -14 69 -29 80 -33 40 -17 132 -51
213 -80 17 -6 47 -16 65 -22 17 -7 48 -17 67 -24 34 -12 89 -28 205 -60 169
-47 151 -42 358 -89 468 -106 1012 -169 1685 -197 l274 -12 266 12 c501 21
802 48 1197 107 212 32 465 81 620 120 33 9 87 22 120 30 143 36 425 124 510
160 17 7 68 27 115 45 252 94 710 347 710 391 0 4 5 8 12 8 7 0 60 49 119 109
l107 109 47 79 c25 43 48 89 52 103 3 14 10 31 15 37 6 7 16 54 24 105 l14 93
-11 85 c-6 47 -18 101 -26 120 -29 69 -78 165 -90 178 -7 7 -13 17 -13 22 0
10 -223 240 -233 240 -4 0 -15 8 -25 18 -27 24 -61 52 -66 52 -3 0 -34 20 -69
44 -117 80 -294 172 -492 255 -55 23 -113 48 -130 55 -36 16 -69 27 -205 72
-214 70 -428 128 -625 169 -44 10 -100 22 -125 28 -25 5 -67 13 -95 17 -27 4
-88 14 -135 23 -157 31 -391 64 -545 77 -55 5 -147 13 -205 19 -223 22 -862
44 -1030 35z m402 -226 c10 -68 24 -188 33 -268 9 -80 22 -194 30 -255 9 -60
15 -128 15 -150 0 -22 7 -89 15 -150 8 -60 18 -149 21 -197 l6 -88 13 0 12 0
7 46 c3 26 6 74 6 108 0 34 5 99 10 146 6 47 15 171 20 275 5 105 15 292 21
418 l13 227 30 0 c17 0 104 -5 193 -12 l163 -12 15 -52 c8 -29 15 -59 15 -68
0 -9 6 -42 14 -74 14 -53 21 -92 61 -299 24 -131 60 -354 92 -565 l17 -118 12
0 12 0 7 198 c8 196 0 756 -12 884 l-6 68 69 -6 c38 -3 105 -12 150 -20 44 -8
94 -14 111 -14 17 0 62 -7 101 -16 l71 -16 6 -56 c3 -32 12 -102 20 -157 85
-608 12 -1339 -210 -2100 -83 -284 -75 -271 -175 -280 -36 -3 -117 -12 -180
-20 -63 -8 -148 -16 -187 -18 l-73 -3 0 291 c0 280 -6 395 -31 668 l-12 127
-12 0 -12 0 -12 -87 c-14 -104 -34 -233 -55 -359 -9 -50 -16 -101 -16 -113 0
-13 -6 -53 -14 -90 -8 -36 -22 -111 -31 -166 -9 -55 -23 -129 -31 -165 -8 -36
-14 -79 -14 -96 l0 -31 -281 -6 c-155 -4 -285 -5 -289 -2 -4 2 -12 46 -19 97
-6 51 -18 147 -27 213 -26 210 -43 337 -59 450 -8 61 -15 123 -15 140 0 16 -9
93 -20 170 -52 374 -119 1040 -153 1538 l-12 187 280 0 281 0 16 -122z m-675
65 c-4 -27 -11 -154 -17 -283 -5 -129 -12 -244 -15 -256 l-5 -21 -151 -6 c-84
-4 -192 -7 -240 -7 l-88 0 -5 -32 c-11 -64 -26 -264 -26 -340 l0 -78 220 0
220 0 0 -322 0 -321 -220 7 -220 7 0 -78 c0 -42 5 -139 12 -216 l11 -139 14
-14 14 -14 72 -1 c40 0 140 -4 224 -7 l152 -7 10 -10 9 -10 12 -245 c6 -135
13 -266 17 -292 l6 -48 -29 0 c-82 -1 -608 50 -776 75 -53 8 -111 15 -127 15
l-31 0 -5 28 c-13 61 -34 150 -45 197 -7 28 -16 73 -20 100 -5 28 -13 77 -19
110 -22 127 -41 266 -56 415 l-15 155 0 305 c1 168 5 339 10 380 5 41 12 109
15 150 6 73 22 186 46 320 6 36 14 90 19 120 4 30 12 73 18 95 11 40 36 146
47 198 l5 27 38 0 c20 0 82 7 137 15 201 29 364 47 530 56 94 6 175 12 180 14
6 2 25 4 44 4 l34 1 -6 -47z m-1061 -114 c-21 -66 -65 -277 -90 -429 -97 -592
-87 -1193 30 -1765 32 -156 47 -222 60 -264 8 -25 13 -45 11 -46 -6 -6 -279
43 -314 56 -13 5 -34 9 -46 9 -12 0 -39 5 -60 11 l-37 10 -16 37 c-45 108
-105 292 -137 427 -8 33 -20 80 -26 105 -7 25 -16 76 -21 113 -5 38 -12 72
-14 76 -3 4 -10 59 -16 122 -6 63 -13 122 -16 132 l-5 17 -60 0 -59 0 0 -21
c0 -28 27 -214 46 -314 21 -109 60 -266 86 -340 5 -16 13 -43 18 -60 14 -51
33 -102 74 -198 27 -63 13 -71 -69 -43 -22 7 -71 23 -110 34 -38 12 -99 31
-135 42 l-65 21 -19 32 c-21 36 -108 211 -136 272 -79 174 -130 380 -150 608
l-12 127 12 128 c25 277 78 465 207 725 57 115 65 132 73 137 4 3 9 14 11 25
l4 20 80 26 c44 15 107 34 140 43 33 10 81 24 106 32 86 26 90 22 58 -52 -36
-86 -56 -141 -69 -189 -4 -16 -12 -41 -17 -55 -31 -76 -103 -379 -103 -428 l0
-23 57 3 58 3 12 65 c35 180 51 248 87 370 36 122 69 219 114 331 l11 27 53
11 c29 6 85 18 123 26 39 7 104 21 145 29 66 14 130 24 137 20 2 0 -3 -20 -11
-45z m3319 -5 c217 -45 366 -82 479 -118 l39 -12 23 -39 c50 -87 143 -268 169
-330 9 -22 23 -51 30 -65 41 -77 122 -346 152 -500 54 -284 30 -684 -53 -878
-8 -18 -14 -39 -14 -47 0 -8 -7 -31 -16 -52 -9 -21 -22 -51 -29 -68 -6 -16
-25 -57 -42 -90 l-29 -60 -30 -9 c-16 -5 -45 -14 -64 -21 -19 -7 -69 -22 -110
-35 -41 -12 -95 -29 -119 -36 -25 -8 -52 -14 -62 -14 l-18 0 9 31 c5 17 13 36
18 42 5 7 12 23 15 37 3 14 12 48 21 75 30 106 66 248 66 266 l0 19 -34 0
c-18 0 -54 -3 -80 -6 l-46 -7 -6 -26 c-4 -14 -24 -78 -46 -141 -22 -63 -44
-129 -49 -147 -5 -18 -14 -35 -19 -38 -6 -4 -10 -14 -10 -23 0 -9 -12 -39 -25
-67 -14 -27 -25 -55 -25 -60 0 -13 -174 -51 -382 -85 -37 -6 -74 -13 -82 -16
l-14 -5 37 113 c21 62 46 142 55 178 10 36 22 74 26 86 4 11 18 61 29 110 12
49 28 114 35 144 38 153 67 305 97 510 57 395 45 996 -27 1320 -8 36 -14 71
-14 78 l0 13 38 -6 c20 -3 69 -13 107 -21z m687 -178 c18 -8 60 -24 93 -36 75
-27 131 -49 171 -66 26 -11 63 -48 200 -199 12 -13 44 -52 70 -87 27 -35 52
-64 56 -66 4 -2 8 -10 8 -18 0 -8 4 -14 9 -14 6 0 18 -13 28 -30 33 -57 54
-37 27 27 -9 21 -22 52 -29 68 -19 46 -49 109 -55 115 -14 14 -51 72 -48 75 4
4 90 -36 98 -46 3 -4 29 -19 58 -35 29 -16 62 -34 74 -40 28 -16 178 -170 178
-183 0 -6 4 -11 9 -11 5 0 26 -35 47 -77 l37 -76 11 -81 12 -81 -13 -95 c-12
-96 -33 -182 -51 -216 -6 -11 -20 -46 -33 -79 -53 -145 -70 -185 -116 -265
-30 -53 -114 -162 -157 -206 -17 -16 -51 -53 -76 -80 l-45 -49 -95 -47 c-52
-26 -117 -56 -145 -68 -27 -12 -58 -26 -69 -31 l-18 -10 8 13 c5 7 21 32 36
54 15 23 28 46 28 52 0 6 4 12 8 14 13 5 101 168 137 253 24 56 44 110 59 160
8 28 23 76 32 107 l18 57 -18 93 c-26 142 -66 275 -132 448 -30 79 -171 342
-186 348 -4 2 -8 12 -8 23 0 10 -4 19 -9 19 -5 0 -14 14 -21 30 -7 17 -16 30
-21 30 -5 0 -9 5 -9 10 0 12 -41 73 -52 78 -5 2 -8 10 -8 17 0 7 -3 15 -7 17
-5 2 -36 41 -70 88 -34 47 -67 91 -73 98 l-11 12 15 0 c9 0 30 -6 48 -14z
m-5099 -98 c-45 -71 -50 -78 -107 -195 -31 -62 -56 -118 -56 -125 -1 -37 -68
-64 -193 -75 l-48 -5 -18 -42 c-21 -46 -42 -116 -68 -226 l-17 -75 0 -205 0
-205 17 -65 c38 -139 49 -176 63 -203 8 -16 14 -33 14 -38 0 -21 119 -249 146
-280 8 -8 14 -19 14 -23 0 -5 14 -25 30 -46 17 -21 30 -43 30 -49 0 -6 5 -11
12 -11 6 0 9 -2 6 -5 -3 -3 -18 1 -34 9 -16 8 -85 42 -154 76 l-125 61 -101
104 c-148 152 -229 278 -290 452 l-27 78 -5 127 -4 127 15 48 c8 26 18 59 20
73 7 33 33 102 57 153 11 23 20 47 20 55 l0 14 -22 -7 c-13 -3 -36 -10 -53
-14 -16 -4 -41 -11 -55 -16 l-25 -7 38 37 c20 21 37 42 37 47 0 4 5 8 11 8 5
0 22 13 37 28 32 33 197 162 208 162 4 0 15 6 23 14 35 30 252 143 379 197 52
22 102 44 111 49 47 24 130 50 139 44 2 -1 -9 -22 -25 -46z" />
    <path d="M9854 6478 c3 -13 6 -33 6 -45 l0 -23 15 0 15 0 0 23 c0 39 -12 67
-27 67 l-15 0 6 -22z" />
    <path d="M9875 6060 l0 -340 50 6 c28 4 52 8 54 10 24 21 -65 664 -93 664
l-11 0 0 -340z" />
    <path d="M7257 4083 c-4 -3 -7 -12 -7 -20 l0 -13 20 0 20 0 0 20 c0 19 -20 27
-33 13z" />
    <path d="M8060 4005 l0 -75 15 0 15 0 0 75 0 75 -15 0 -15 0 0 -75z" />
  </g>
  <g transform="translate(0.000000,1133.000000) scale(0.100000,-0.100000)" fill="#000000" stroke="none">
    <path d="M7300 7445 c-8 -2 -107 -8 -220 -14 -394 -22 -803 -72 -1195 -147
-200 -39 -606 -143 -735 -189 -82 -29 -107 -37 -135 -45 -16 -5 -55 -18 -85
-30 -30 -12 -67 -25 -81 -30 -14 -4 -34 -12 -45 -17 -10 -6 -35 -17 -54 -25
-350 -151 -663 -355 -820 -534 -52 -60 -130 -168 -130 -181 0 -7 -4 -13 -10
-13 -5 0 -13 -12 -16 -27 -4 -16 -11 -33 -15 -39 -5 -6 -17 -39 -29 -75 l-20
-64 0 -125 0 -125 20 -62 c10 -34 23 -70 28 -80 37 -73 57 -109 64 -118 5 -5
27 -36 50 -67 23 -32 45 -58 50 -58 4 0 8 -4 8 -10 0 -12 98 -110 110 -110 6
0 10 -4 10 -8 0 -5 45 -42 101 -83 55 -41 107 -80 114 -86 8 -7 17 -13 20 -13
4 0 26 -13 50 -29 24 -16 53 -32 64 -36 12 -3 21 -11 21 -16 0 -5 6 -9 13 -9
6 0 62 -25 122 -56 61 -30 137 -67 170 -80 69 -28 88 -37 130 -54 87 -37 274
-101 395 -137 219 -64 320 -90 455 -118 44 -9 106 -23 137 -31 32 -8 68 -14
80 -14 13 0 55 -6 93 -15 234 -49 674 -103 1045 -127 l195 -13 430 0 430 0
200 13 c307 19 674 61 865 98 42 8 87 14 100 14 14 0 57 6 95 14 39 8 108 22
155 31 47 9 108 23 136 31 28 8 59 14 69 14 10 0 41 6 69 14 28 8 80 22 116
31 36 9 79 20 95 25 17 6 89 27 160 49 157 48 289 94 330 115 17 9 35 16 42
16 6 0 24 7 40 15 15 8 51 24 78 36 117 50 320 154 385 197 40 27 63 40 86 51
12 5 23 13 25 18 2 4 20 19 41 33 478 329 602 801 309 1185 -52 68 -206 225
-221 225 -5 0 -10 4 -10 8 0 8 -95 82 -105 82 -3 0 -11 5 -18 10 -61 54 -311
190 -522 284 -84 38 -104 46 -117 46 -8 0 -23 7 -34 15 -10 8 -28 15 -40 15
-11 0 -24 4 -30 9 -5 4 -83 31 -174 60 -237 74 -248 77 -325 95 -38 10 -95 23
-125 31 -208 53 -286 70 -385 85 -27 4 -75 12 -105 18 -210 41 -605 87 -965
113 -146 11 -1000 22 -1035 14z m905 -76 c116 -5 257 -15 315 -20 58 -6 150
-14 205 -19 154 -13 388 -46 545 -77 47 -9 108 -19 135 -23 28 -4 70 -12 95
-17 25 -6 81 -18 125 -28 99 -20 255 -59 370 -91 155 -44 391 -120 460 -150
17 -7 75 -32 130 -55 198 -83 375 -175 492 -255 35 -24 66 -44 69 -44 5 0 39
-28 66 -52 10 -10 21 -18 25 -18 10 0 233 -230 233 -240 0 -5 6 -15 13 -22 12
-13 61 -109 90 -178 8 -19 20 -71 25 -115 l10 -80 -13 -88 c-7 -48 -17 -93
-23 -100 -5 -6 -12 -23 -15 -37 -4 -14 -27 -60 -52 -103 l-47 -79 -107 -109
c-59 -60 -112 -109 -119 -109 -7 0 -12 -4 -12 -8 0 -44 -458 -297 -710 -391
-47 -18 -98 -38 -115 -45 -85 -36 -364 -123 -512 -160 -35 -9 -89 -23 -120
-30 -157 -40 -409 -89 -618 -120 -393 -59 -693 -86 -1192 -107 l-261 -12 -264
11 c-670 28 -1218 92 -1685 198 -170 38 -202 46 -251 59 -218 60 -271 76 -312
90 -19 7 -50 17 -67 24 -18 6 -48 16 -65 22 -81 29 -173 63 -213 80 -11 4 -47
19 -80 33 -501 204 -866 519 -964 832 l-21 67 0 86 0 86 20 65 c22 71 90 210
102 210 5 0 8 5 8 11 0 27 121 159 233 252 130 109 461 302 628 365 19 7 52
21 74 31 87 39 111 49 142 55 18 4 35 12 38 17 4 5 15 9 25 9 11 0 34 6 52 14
51 21 99 37 138 46 19 4 49 13 65 18 102 35 399 107 595 146 41 8 120 24 175
35 55 12 111 21 125 21 14 0 61 6 105 14 190 35 586 72 905 86 135 6 274 12
310 14 95 5 453 -3 695 -15z" />
    <path d="M7314 7273 c2 -16 10 -104 16 -198 27 -435 97 -1143 150 -1520 11
-77 20 -154 20 -170 0 -17 7 -79 15 -140 16 -113 33 -240 59 -450 9 -66 21
-162 27 -213 7 -51 15 -95 20 -97 4 -3 138 -2 298 2 l291 6 0 31 c0 17 6 60
14 96 8 36 22 110 31 165 9 55 23 130 31 166 8 37 14 77 14 90 0 12 7 63 16
113 20 120 41 250 56 361 l13 90 11 -110 c25 -232 34 -425 34 -699 l0 -284 83
4 c45 3 134 11 197 19 63 8 144 17 180 20 80 7 85 10 105 60 15 35 26 68 70
220 223 764 296 1505 210 2120 -8 55 -17 125 -20 157 l-6 56 -71 16 c-39 9
-85 16 -102 16 -17 0 -65 6 -106 14 -41 8 -115 17 -164 21 l-89 6 7 -18 c20
-51 32 -769 17 -1028 l-6 -110 -18 120 c-32 219 -68 436 -92 565 -34 185 -47
249 -61 302 -8 32 -14 65 -14 74 0 9 -7 39 -15 68 l-15 52 -163 12 c-89 7
-180 12 -203 12 l-40 0 -13 -227 c-6 -126 -16 -313 -21 -418 -5 -104 -14 -228
-20 -275 -5 -47 -10 -116 -11 -155 0 -38 -4 -88 -8 -110 l-8 -40 -6 90 c-4 50
-14 140 -22 200 -8 61 -15 128 -15 150 0 22 -6 90 -15 150 -8 61 -21 175 -30
255 -9 80 -23 200 -33 268 l-16 122 -294 0 -294 0 6 -27z" />
    <path d="M7145 7285 c-5 -2 -86 -8 -180 -14 -166 -9 -329 -27 -530 -56 -55 -8
-117 -15 -137 -15 l-38 0 -5 -27 c-11 -52 -36 -158 -47 -198 -6 -22 -14 -65
-18 -95 -5 -30 -13 -84 -19 -120 -24 -134 -40 -247 -46 -320 -3 -41 -10 -109
-15 -150 -5 -41 -9 -217 -10 -390 l0 -315 15 -155 c15 -149 34 -288 56 -415 6
-33 14 -82 19 -110 4 -27 13 -72 20 -100 11 -47 32 -136 45 -197 l5 -28 31 0
c16 0 74 -7 127 -15 178 -26 694 -76 786 -75 l38 0 -5 58 c-3 31 -11 167 -17
302 l-12 245 -9 10 -10 10 -152 7 c-84 3 -184 7 -224 7 l-72 1 -14 14 -14 14
-11 139 c-7 77 -12 169 -12 206 l0 67 220 -7 220 -6 0 331 0 332 -220 0 -220
0 0 68 c0 68 16 270 26 330 l5 32 88 0 c48 0 156 3 240 7 l151 6 5 21 c3 12 9
125 15 251 6 127 13 258 16 293 l7 62 -44 -1 c-24 0 -48 -2 -54 -4z" />
    <path d="M6135 7174 c-16 -2 -64 -11 -105 -20 -41 -8 -106 -22 -145 -29 -38
-8 -94 -20 -123 -26 l-53 -11 -11 -27 c-45 -112 -78 -209 -114 -331 -36 -122
-52 -191 -87 -370 l-12 -65 -48 -3 -47 -3 0 13 c-1 40 76 352 103 418 5 14 13
39 17 55 8 30 26 83 41 120 4 11 20 48 34 82 14 34 25 67 25 73 l0 10 -27 -5
c-58 -12 -221 -59 -328 -94 l-80 -26 -4 -20 c-2 -11 -7 -22 -11 -25 -8 -5 -16
-22 -73 -137 -129 -261 -183 -449 -208 -730 l-11 -133 11 -132 c21 -232 71
-437 151 -613 28 -61 115 -236 136 -272 l19 -32 65 -21 c36 -11 97 -30 135
-42 39 -11 88 -26 110 -33 22 -7 57 -16 78 -20 l39 -6 -7 23 c-6 24 -28 82
-49 133 -18 41 -36 94 -46 130 -5 17 -13 44 -18 60 -26 74 -65 231 -86 340
-15 82 -46 284 -46 304 l0 11 49 0 50 0 5 -17 c3 -10 10 -69 16 -132 6 -63 13
-118 16 -122 2 -4 9 -38 14 -76 5 -37 14 -88 21 -113 6 -25 18 -72 26 -105 32
-135 92 -319 137 -427 l16 -37 37 -10 c21 -6 46 -11 56 -11 9 0 43 -6 75 -14
57 -15 190 -40 270 -52 l42 -6 0 14 c0 8 -6 34 -14 59 -13 42 -28 108 -60 264
-116 570 -127 1156 -30 1745 25 152 69 363 90 429 17 55 18 71 2 70 -7 -1 -26
-4 -43 -5z" />
    <path d="M9330 7131 c0 -14 6 -55 14 -91 72 -323 84 -908 27 -1300 -30 -205
-59 -357 -97 -510 -7 -30 -23 -95 -35 -144 -11 -49 -25 -99 -29 -110 -4 -12
-16 -50 -26 -86 -9 -36 -35 -118 -56 -183 -47 -141 -52 -132 58 -112 49 9 125
23 169 31 154 29 235 49 235 59 0 5 11 33 25 60 13 28 25 58 25 67 0 9 4 19
10 23 5 3 14 20 19 38 5 18 27 84 49 147 22 63 42 127 46 142 l6 26 65 7 c36
4 68 5 71 2 6 -5 -20 -116 -57 -242 -11 -38 -23 -81 -26 -95 -3 -14 -12 -34
-19 -45 -7 -11 -16 -36 -19 -56 l-7 -37 29 5 c15 3 51 11 78 19 109 32 192 57
225 69 19 7 48 16 64 21 l30 9 29 60 c17 33 36 74 42 90 7 17 20 47 29 68 9
21 16 44 16 52 0 8 6 29 14 47 40 92 74 281 81 448 l6 135 -10 120 c-15 176
-37 286 -97 475 -42 131 -62 187 -79 220 -7 14 -21 43 -30 65 -26 62 -119 243
-169 330 l-23 39 -39 12 c-115 37 -312 85 -484 119 -47 9 -102 20 -122 25
l-38 8 0 -27z m599 -961 c19 -113 47 -418 39 -425 -2 -1 -21 -5 -43 -7 l-40
-5 0 328 0 329 12 -48 c6 -26 21 -103 32 -172z" />
    <path d="M10097 6953 c4 -10 11 -22 15 -28 5 -5 37 -48 71 -95 34 -47 65 -86
70 -88 4 -2 7 -10 7 -17 0 -7 3 -15 8 -17 11 -5 52 -66 52 -78 0 -5 4 -10 9
-10 5 0 14 -13 21 -30 7 -16 16 -30 21 -30 5 0 9 -9 9 -19 0 -11 4 -21 8 -23
15 -6 156 -269 186 -348 65 -169 105 -302 132 -442 l16 -87 -15 -48 c-8 -26
-22 -73 -31 -103 -26 -85 -56 -159 -98 -245 -44 -87 -91 -170 -100 -173 -4 -2
-8 -8 -8 -14 0 -6 -18 -37 -40 -69 -49 -72 -47 -89 8 -60 9 5 40 19 67 31 28
12 93 42 145 68 l95 47 45 49 c25 27 59 64 76 80 43 44 127 153 157 206 46 80
63 120 116 265 13 33 27 68 33 79 18 34 39 120 52 222 l14 101 -13 85 -12 85
-38 77 c-20 42 -41 76 -46 76 -5 0 -9 5 -9 11 0 13 -150 167 -178 183 -12 6
-45 24 -74 40 -29 16 -55 31 -58 35 -13 16 -140 74 -147 67 -4 -4 0 -13 10
-20 9 -7 17 -16 17 -20 0 -6 38 -64 50 -76 3 -3 13 -23 24 -45 10 -22 22 -48
27 -57 5 -10 15 -36 23 -58 l14 -41 -24 26 c-13 14 -24 30 -24 35 0 4 -4 10
-8 12 -4 2 -29 31 -56 66 -26 35 -58 74 -70 87 -137 151 -174 188 -200 199
-39 17 -94 38 -171 66 -33 12 -76 28 -95 35 -19 8 -47 16 -62 19 l-27 6 6 -17z" />
    <path d="M5094 6905 c-10 -8 -27 -15 -36 -15 -15 0 -64 -18 -109 -40 -9 -5
-59 -27 -111 -49 -127 -54 -344 -167 -379 -197 -8 -8 -19 -14 -23 -14 -11 0
-176 -129 -208 -162 -15 -15 -32 -28 -37 -28 -6 0 -11 -4 -11 -9 0 -4 -18 -26
-40 -47 -22 -22 -40 -45 -40 -53 l0 -13 18 7 c9 3 41 13 70 20 29 8 57 17 62
20 14 8 13 5 -10 -42 -24 -51 -50 -120 -57 -153 -2 -14 -12 -47 -20 -73 l-15
-48 4 -137 5 -137 27 -78 c61 -174 142 -300 290 -452 l101 -104 125 -61 c133
-65 174 -85 203 -94 l17 -5 0 15 c0 8 -7 17 -15 20 -8 4 -15 11 -15 16 0 6
-13 27 -30 48 -16 21 -30 41 -30 46 0 4 -6 15 -14 23 -27 31 -146 259 -146
280 0 5 -6 22 -14 38 -14 27 -26 65 -63 203 l-17 65 0 195 0 195 17 75 c26
109 47 179 68 226 l18 42 48 5 c125 11 192 38 193 75 0 7 25 63 56 125 57 116
62 125 107 194 15 24 27 47 27 53 0 5 5 10 10 10 6 0 10 7 10 15 0 19 -11 19
-36 0z" />
    <path d="M6966 4133 c-2 -10 -8 -66 -12 -125 l-6 -108 96 0 96 0 0 30 0 30
-40 0 -40 0 0 15 0 15 35 0 35 0 0 30 0 30 -35 0 -35 0 0 21 0 21 43 -3 42 -3
5 -26 5 -25 45 -22 45 -22 -47 0 -48 -1 0 -44 0 -43 31 -7 c43 -8 171 -7 186
2 16 10 26 57 19 87 l-6 24 -38 18 -37 18 43 3 42 3 0 34 0 33 -31 11 c-18 6
-65 11 -105 11 l-73 0 -6 -10 c-9 -15 -25 -12 -25 5 l0 15 -89 0 -90 0 -5 -17z" />
    <path d="M8455 4125 c-14 -13 -25 -20 -25 -16 0 5 -14 14 -30 21 l-31 13 -69
-5 c-38 -3 -77 -11 -85 -18 l-15 -12 0 -34 0 -34 50 0 50 0 0 15 c0 8 5 15 10
15 6 0 10 -4 10 -8 0 -12 -88 -102 -100 -102 l-10 0 0 -39 0 -40 113 6 c130 7
121 3 113 40 l-7 29 -37 -4 -37 -5 38 33 37 34 0 35 0 36 9 -13 8 -14 49 8
c27 4 52 12 56 18 l8 11 0 -13 c0 -8 -9 -16 -20 -19 l-20 -5 0 -28 0 -29 22
-3 23 -3 3 -17 c2 -10 -1 -18 -7 -18 -6 0 -11 7 -11 15 l0 15 -55 0 -55 0 0
-26 c0 -14 5 -34 10 -45 l11 -19 85 0 c47 0 94 5 105 10 l19 11 0 46 0 46 -17
12 -17 13 17 16 c21 22 22 45 1 74 l-15 22 -80 0 -80 0 -24 -25z" />
    <path d="M7400 4100 l0 -30 25 0 25 0 0 -95 0 -95 55 0 55 0 0 95 0 96 28 -3
27 -3 3 33 3 32 -110 0 -111 0 0 -30z" />
    <path d="M7755 4123 c-27 -7 -35 -21 -35 -60 l0 -33 55 0 55 0 1 18 1 17 5
-14 6 -14 -17 -12 c-9 -7 -36 -30 -61 -51 l-45 -38 0 -28 0 -28 115 0 115 0 0
30 0 30 -37 0 -37 0 37 34 37 34 0 43 c0 24 -4 50 -9 58 l-9 14 -79 3 c-43 2
-87 0 -98 -3z" />
    <path d="M7978 4123 l-18 -4 0 -109 0 -109 19 -11 c11 -5 55 -10 98 -10 l79 0
20 14 19 14 -3 98 -3 98 -11 13 -10 13 -87 -1 c-47 -1 -94 -3 -103 -6z m99
-150 c-2 -21 -4 -6 -4 32 0 39 2 55 4 38 2 -18 2 -50 0 -70z" />
    <path d="M7570 3915 l0 -35 40 0 40 0 0 35 0 35 -40 0 -40 0 0 -35z" />
  </g>
  <g transform="translate(0.000000,1133.000000) scale(0.100000,-0.100000)" fill="#efefef" stroke="none">
    <path d="M7175 4129 c-4 -6 -13 -8 -20 -5 l-13 5 -5 -25 -4 -25 26 23 c14 12
30 26 36 30 l9 8 -11 0 c-7 0 -15 -5 -18 -11z" />
  </g>
  <g transform="translate(0.000000,1133.000000) scale(0.100000,-0.100000)" fill="#111111" stroke="none" />
  <g transform="translate(0.000000,1133.000000) scale(0.100000,-0.100000)" fill="#1e1e1e" stroke="none" />
  <g transform="translate(0.000000,1133.000000) scale(0.100000,-0.100000)" fill="#bebebe" stroke="none" />
  <g transform="translate(0.000000,1133.000000) scale(0.100000,-0.100000)" fill="#939393" stroke="none">
    <path d="M7123 6000 c0 -41 2 -58 4 -37 2 20 2 54 0 75 -2 20 -4 3 -4 -38z" />
    <path d="M7123 5780 c0 -41 2 -58 4 -37 2 20 2 54 0 75 -2 20 -4 3 -4 -38z" />
  </g>
  <g transform="translate(0.000000,1133.000000) scale(0.100000,-0.100000)" fill="#b0b0b0" stroke="none" />
  <g transform="translate(0.000000,1133.000000) scale(0.100000,-0.100000)" fill="#292929" stroke="none" />
  <g transform="translate(0.000000,1133.000000) scale(0.100000,-0.100000)" fill="#7a7a7a" stroke="none" />
  <g transform="translate(0.000000,1133.000000) scale(0.100000,-0.100000)" fill="#858585" stroke="none" />
  <g transform="translate(0.000000,1133.000000) scale(0.100000,-0.100000)" fill="#5b5b5b" stroke="none">
    <path d="M9303 6415 c0 -33 2 -45 4 -27 2 18 2 45 0 60 -2 15 -4 0 -4 -33z" />
  </g>
  <g transform="translate(0.000000,1133.000000) scale(0.100000,-0.100000)" fill="#0a0a0a" stroke="none" />
  <g transform="translate(0.000000,1133.000000) scale(0.100000,-0.100000)" fill="#363636" stroke="none" />
  <g transform="translate(0.000000,1133.000000) scale(0.100000,-0.100000)" fill="#dbdbdb" stroke="none">
    <path d="M7619 4487 c4 -4 48 -6 97 -5 l89 3 -97 5 c-53 3 -94 1 -89 -3z" />
  </g>
  <g transform="translate(0.000000,1133.000000) scale(0.100000,-0.100000)" fill="#6f6f6f" stroke="none" />
  <g transform="translate(0.000000,1133.000000) scale(0.100000,-0.100000)" fill="#cbcbcb" stroke="none" />
  <g transform="translate(0.000000,1133.000000) scale(0.100000,-0.100000)" fill="#404040" stroke="none" />
  <g transform="translate(0.000000,1133.000000) scale(0.100000,-0.100000)" fill="#666666" stroke="none" />
  <g transform="translate(0.000000,1133.000000) scale(0.100000,-0.100000)" fill="#9b9b9b" stroke="none" />
  <g transform="translate(0.000000,1133.000000) scale(0.100000,-0.100000)" fill="#525252" stroke="none" />
  <g transform="translate(0.000000,1133.000000) scale(0.100000,-0.100000)" fill="#e3e3e3" stroke="none" />
  <g transform="translate(0.000000,1133.000000) scale(0.100000,-0.100000)" fill="#a5a5a5" stroke="none" />
  <g transform="translate(0.000000,1133.000000) scale(0.100000,-0.100000)" fill="#494949" stroke="none" />
  <g transform="translate(0.000000,1133.000000) scale(0.100000,-0.100000)" fill="#d2d2d2" stroke="none" />
</svg>