<?xml version="1.0" encoding="UTF-8"?>
<svg id="Layer_2" data-name="Layer 2" xmlns="http://www.w3.org/2000/svg" viewBox="0 0 527.62 330.8">
  <defs>
    <style>
      .cls-1 {
        fill: #29abe2;
      }
    </style>
  </defs>
  <g>
    <path class="cls-1" d="m456.87,222.55c-77.45,59.47-248.18,107.68-381.36,107.68-13.06,0-25.34-.5-36.7-1.38,126.01-8.06,272.46-52.61,342.45-106.42,54.73-41.98,48.27-78.42-7.38-96.17l-1.28-6.61,4.9-4.28c116.28,5.03,152.34,51.1,79.37,107.18Z"/>
    <g>
      <path class="cls-1" d="m383.97,101.02c3.9-3.4,5.32-8.31,3.62-12.9-1.7-4.59-6.11-7.87-11.5-8.56l-26.27-3.4-11.71-21.08c-2.41-4.34-7.31-7.05-12.78-7.05s-10.29,2.71-12.71,7.05l-11.78,21.08-26.27,3.4c-5.4.69-9.8,3.96-11.43,8.56-1.7,4.59-.36,9.5,3.55,12.9l19.02,16.43-4.47,23.22c-.92,4.72,1.28,9.44,5.68,12.27,2.48,1.64,5.4,2.45,8.31,2.45,2.27,0,4.54-.5,6.6-1.45l23.5-10.95,23.5,10.95c4.83,2.2,10.58,1.83,14.98-1.01,4.4-2.83,6.6-7.55,5.68-12.27l-3.27-16.68-1.28-6.55,2.77-2.39,16.26-14.03Zm-25.27,21.15l3.76,19.57c.5,2.39-.64,4.72-2.77,6.1-2.27,1.45-5.11,1.64-7.52.5l-26.83-12.46-26.76,12.46c-2.41,1.13-5.32.94-7.53-.5-2.2-1.38-3.27-3.78-2.84-6.1l5.18-26.5-21.72-18.75c-1.92-1.64-2.63-4.15-1.77-6.42.85-2.33,2.98-3.96,5.75-4.28l29.96-3.9,13.42-24.04c2.41-4.34,10.29-4.41,12.71,0l13.42,24.04,29.96,3.9c2.77.31,4.9,1.95,5.75,4.28s.14,4.72-1.85,6.42l-21.3,18.44-.35.31,1.35,6.92Z"/>
      <path class="cls-1" d="m352.8,107.76c-3.34,2.96-4.9,7.11-4.12,11.2l3.97,20.45-20.66-9.69c-4.19-1.95-9.16-1.95-13.28,0l-20.73,9.69,3.98-20.45c.78-4.09-.71-8.24-4.05-11.14l-16.82-14.54,23.21-2.96c4.61-.57,8.59-3.15,10.65-6.92l10.36-18.57,10.36,18.57c2.06,3.78,6.11,6.36,10.72,6.92l23.14,2.96-16.75,14.48Z"/>
    </g>
    <g>
      <path class="cls-1" d="m436.87,35.64c2.16-1.88,2.95-4.6,2-7.14-.94-2.54-3.38-4.36-6.37-4.74l-14.55-1.88-6.49-11.68c-1.34-2.4-4.05-3.9-7.08-3.9s-5.7,1.5-7.04,3.9l-6.53,11.68-14.55,1.88c-2.99.38-5.43,2.2-6.33,4.74-.94,2.54-.2,5.26,1.97,7.14l10.54,9.1-2.48,12.86c-.51,2.61.71,5.23,3.14,6.8,1.38.91,2.99,1.36,4.6,1.36,1.26,0,2.52-.28,3.66-.8l13.01-6.06,13.01,6.06c2.67,1.22,5.86,1.01,8.29-.56,2.44-1.57,3.66-4.18,3.15-6.8l-1.81-9.24-.71-3.62,1.53-1.32,9-7.77Zm-14,11.71l2.08,10.84c.28,1.32-.35,2.61-1.53,3.38-1.26.8-2.83.91-4.17.28l-14.86-6.9-14.82,6.9c-1.34.63-2.95.52-4.17-.28-1.22-.77-1.81-2.09-1.57-3.38l2.87-14.67-12.03-10.39c-1.06-.91-1.45-2.3-.98-3.55.47-1.29,1.65-2.2,3.18-2.37l16.59-2.16,7.43-13.31c1.34-2.4,5.7-2.44,7.04,0l7.43,13.31,16.59,2.16c1.53.17,2.71,1.08,3.18,2.37s.08,2.61-1.02,3.55l-11.79,10.21-.2.17.75,3.83Z"/>
      <path class="cls-1" d="m419.61,39.37c-1.85,1.64-2.71,3.94-2.28,6.2l2.2,11.33-11.44-5.37c-2.32-1.08-5.07-1.08-7.35,0l-11.48,5.37,2.2-11.33c.43-2.27-.39-4.57-2.24-6.17l-9.32-8.05,12.86-1.64c2.55-.31,4.76-1.74,5.9-3.83l5.74-10.28,5.74,10.28c1.14,2.09,3.38,3.52,5.94,3.83l12.82,1.64-9.28,8.02Z"/>
    </g>
    <g>
      <path class="cls-1" d="m256.09,131.06c2.16-1.88,2.95-4.6,2-7.14s-3.38-4.36-6.37-4.74l-14.55-1.88-6.49-11.68c-1.34-2.4-4.05-3.9-7.08-3.9s-5.7,1.5-7.04,3.9l-6.53,11.68-14.55,1.88c-2.99.38-5.43,2.2-6.33,4.74-.94,2.54-.2,5.26,1.97,7.14l10.54,9.1-2.48,12.86c-.51,2.61.71,5.23,3.14,6.8,1.38.91,2.99,1.36,4.6,1.36,1.26,0,2.52-.28,3.66-.8l13.01-6.06,13.01,6.06c2.67,1.22,5.86,1.01,8.29-.56,2.44-1.57,3.66-4.18,3.15-6.8l-1.81-9.24-.71-3.62,1.53-1.32,9-7.77Zm-14,11.71l2.08,10.84c.28,1.32-.35,2.61-1.53,3.38-1.26.8-2.83.91-4.17.28l-14.86-6.9-14.82,6.9c-1.34.63-2.95.52-4.17-.28-1.22-.77-1.81-2.09-1.57-3.38l2.87-14.67-12.03-10.39c-1.06-.91-1.45-2.3-.98-3.55.47-1.29,1.65-2.2,3.18-2.37l16.59-2.16,7.43-13.31c1.34-2.4,5.7-2.44,7.04,0l7.43,13.31,16.59,2.16c1.53.17,2.71,1.08,3.18,2.37s.08,2.61-1.02,3.55l-11.79,10.21-.2.17.75,3.83Z"/>
      <path class="cls-1" d="m238.83,134.79c-1.85,1.64-2.71,3.94-2.28,6.2l2.2,11.33-11.44-5.37c-2.32-1.08-5.07-1.08-7.35,0l-11.48,5.37,2.2-11.33c.43-2.27-.39-4.57-2.24-6.17l-9.32-8.05,12.86-1.64c2.55-.31,4.76-1.74,5.9-3.83l5.74-10.28,5.74,10.28c1.14,2.09,3.38,3.52,5.94,3.83l12.82,1.64-9.28,8.02Z"/>
    </g>
    <g>
      <path class="cls-1" d="m294.87,29.35c2.16-1.88,2.95-4.6,2-7.14-.94-2.54-3.38-4.36-6.37-4.74l-14.55-1.88-6.49-11.68c-1.34-2.4-4.05-3.9-7.08-3.9s-5.7,1.5-7.04,3.9l-6.53,11.68-14.55,1.88c-2.99.38-5.43,2.2-6.33,4.74-.94,2.54-.2,5.26,1.97,7.14l10.54,9.1-2.48,12.86c-.51,2.61.71,5.23,3.14,6.8,1.38.91,2.99,1.36,4.6,1.36,1.26,0,2.52-.28,3.66-.8l13.01-6.06,13.01,6.06c2.67,1.22,5.86,1.01,8.29-.56,2.44-1.57,3.66-4.18,3.15-6.8l-1.81-9.24-.71-3.62,1.53-1.32,9-7.77Zm-14,11.71l2.08,10.84c.28,1.32-.35,2.61-1.53,3.38-1.26.8-2.83.91-4.17.28l-14.86-6.9-14.82,6.9c-1.34.63-2.95.52-4.17-.28-1.22-.77-1.81-2.09-1.57-3.38l2.87-14.67-12.03-10.39c-1.06-.91-1.45-2.3-.98-3.55.47-1.29,1.65-2.2,3.18-2.37l16.59-2.16,7.43-13.31c1.34-2.4,5.7-2.44,7.04,0l7.43,13.31,16.59,2.16c1.53.17,2.71,1.08,3.18,2.37s.08,2.61-1.02,3.55l-11.79,10.21-.2.17.75,3.83Z"/>
      <path class="cls-1" d="m277.61,33.07c-1.85,1.64-2.71,3.94-2.28,6.2l2.2,11.33-11.44-5.37c-2.32-1.08-5.07-1.08-7.35,0l-11.48,5.37,2.2-11.33c.43-2.27-.39-4.57-2.24-6.17l-9.32-8.05,12.86-1.64c2.55-.31,4.76-1.74,5.9-3.83l5.74-10.28,5.74,10.28c1.14,2.09,3.38,3.52,5.94,3.83l12.82,1.64-9.28,8.02Z"/>
    </g>
  </g>
  <g id="Layer_1" data-name="Layer 1">
    <g>
      <path d="m13.71,180.26c-.74,1.28-1.53,1.93-2.37,1.93-.44,0-.81-.25-1.11-.74L.44,164.78c-.3-.49-.44-1.11-.44-1.85,0-1.43.37-2.77,1.11-4l34.37-59.56c.54-.99,1.37-1.83,2.48-2.52,1.11-.69,2.16-1.04,3.15-1.04h17.78c1.33,0,2,.59,2,1.78,0,.54-.17,1.14-.52,1.78l-4.15,7.11c-.35.64-.52,1.23-.52,1.78,0,1.19.69,1.78,2.08,1.78,1.78,0,2.67.42,2.67,1.26,0,.74-.64,1.33-1.93,1.78-1.04.35-1.98.52-2.82.52-.99,0-2.03.35-3.11,1.04-1.09.69-1.93,1.53-2.52,2.52l-36.37,63.12Z"/>
      <path d="m115.86,117.14c1.33,0,2,.59,2,1.78,0,.54-.17,1.14-.52,1.78l-18.52,32c-.54.99-1.37,1.83-2.48,2.52-1.11.69-2.14,1.04-3.07,1.04h-17.78c-1.38,0-2.07-.59-2.07-1.78,0-.54.17-1.14.52-1.78l16.45-28.45c.34-.64.52-1.23.52-1.78,0-1.19-.67-1.78-2-1.78-.99,0-2.02.35-3.11,1.04-1.08.69-1.92,1.53-2.51,2.52l-16.45,28.45c-.54.99-1.37,1.83-2.48,2.52-1.11.69-2.14,1.04-3.07,1.04h-17.79c-1.38,0-2.07-.59-2.07-1.78,0-.54.17-1.14.52-1.78l34.45-59.56c.74-1.28,1.51-1.93,2.3-1.93.44,0,.82.22,1.11.67l9.85,16.74c.3.49.44,1.16.44,2,0,1.24-.3,2.37-.89,3.41-.3.49-.44.96-.44,1.41,0,1.14.74,1.7,2.22,1.7h24.89Z"/>
      <path d="m136.69,139.51c-1.09.69-1.9,1.52-2.45,2.51l-4.15,7.09c-.3.65-.45,1.25-.45,1.8,0,1.2.67,1.8,2,1.8.99,0,2.04-.34,3.15-1.04,1.11-.69,1.94-1.53,2.48-2.52l2.07-3.56c.54-.99,1.37-1.83,2.48-2.52,1.11-.69,2.16-1.04,3.15-1.04h17.78c1.33,0,2,.59,2,1.78,0,.54-.17,1.14-.52,1.78l-4.15,7.11c-.54.99-1.37,1.83-2.48,2.52-1.11.69-2.14,1.04-3.08,1.04h-49.78c-1.38,0-2.07-.59-2.07-1.78,0-.54.17-1.14.52-1.78l18.52-32c.54-.99,1.37-1.83,2.48-2.52,1.11-.69,2.16-1.04,3.15-1.04h49.78c1.33,0,2,.59,2,1.78,0,.54-.17,1.14-.52,1.78l-8.24,14.22c-.54.99-1.37,1.83-2.48,2.52-1.11.69-2.17,1.04-3.15,1.04h-24.93c-.99,0-2.03.35-3.12,1.03Zm3.69-8.19c-.34.65-.51,1.25-.51,1.8,0,1.2.69,1.8,2.07,1.8.99,0,2.02-.35,3.11-1.04,1.09-.69,1.93-1.53,2.52-2.52l4.07-7.11c.34-.64.52-1.23.52-1.78,0-1.19-.67-1.78-2.01-1.78-.99,0-2.03.35-3.12,1.03-1.09.69-1.93,1.52-2.53,2.51l-4.13,7.08Z"/>
    </g>
    <g>
      <path d="m237.82,176.49c3.25.02,4.87,1.43,4.85,4.21,0,1.28-.48,2.67-1.42,4.17l-43.88,74.95c-1.29,2.32-3.25,4.28-5.88,5.88-2.62,1.61-5.1,2.4-7.42,2.39l-141.96-.97-26.17-44.94c-.58-1.05-.85-2.5-.84-4.36.02-3.25.92-6.38,2.68-9.39l14.63-24.98c1.29-2.31,3.25-4.27,5.88-5.88,2.62-1.61,5.1-2.4,7.42-2.39l41.8.29c3.14.02,4.69,1.43,4.67,4.21,0,1.28-.43,2.67-1.25,4.17l-39.12,66.62c-.82,1.51-1.24,2.9-1.25,4.17-.02,2.79,1.54,4.19,4.67,4.21,2.32.02,4.79-.78,7.41-2.39,2.62-1.61,4.58-3.57,5.87-5.89l39.12-66.62c1.29-2.31,3.25-4.27,5.88-5.87,2.62-1.6,5.1-2.4,7.42-2.39l41.82.29c3.14.02,4.69,1.42,4.67,4.18,0,1.27-.46,2.65-1.35,4.14l-39,66.7c-.84,1.5-1.27,2.89-1.28,4.16-.02,2.78,1.54,4.18,4.67,4.21,2.32.02,4.77-.78,7.33-2.39,2.56-1.61,4.55-3.57,5.96-5.88l38.95-66.62c1.41-2.31,3.4-4.27,5.96-5.88,2.56-1.61,5.01-2.4,7.33-2.39l41.8.29Z"/>
      <path d="m380.99,177.47c3.14.02,4.69,1.43,4.67,4.21,0,1.28-.43,2.67-1.25,4.17l-44.06,74.95c-1.3,2.32-3.25,4.28-5.88,5.88-2.62,1.61-5.04,2.4-7.25,2.39l-117.05-.8c-3.25-.02-4.87-1.43-4.85-4.21,0-1.28.42-2.67,1.25-4.17l19.56-33.31c1.41-2.31,3.4-4.27,5.96-5.88,2.56-1.61,5.01-2.4,7.33-2.39l58.52.4c2.33.02,4.79-.78,7.37-2.38,2.58-1.6,4.58-3.56,6-5.87l9.74-16.61c.74-1.52,1.12-2.92,1.13-4.21.02-2.81-1.54-4.23-4.67-4.25-2.3-.02-4.72.79-7.26,2.41-2.54,1.62-4.51,3.6-5.91,5.93l-4.91,8.34c-1.3,2.29-3.26,4.23-5.89,5.82-2.63,1.59-5.05,2.38-7.26,2.36l-41.91-.29c-3.26-.02-4.88-1.43-4.86-4.21,0-1.28.42-2.67,1.25-4.17l9.87-16.65c1.29-2.31,3.25-4.27,5.88-5.88,2.62-1.61,5.09-2.4,7.42-2.39l117.05.8Zm-84.39,57.93c.84-1.5,1.27-2.89,1.28-4.16.02-2.78-1.6-4.18-4.85-4.2-2.32-.02-4.77.78-7.33,2.39-2.57,1.61-4.5,3.57-5.79,5.88l-9.87,16.66c-.82,1.5-1.24,2.9-1.25,4.17-.02,2.79,1.54,4.19,4.67,4.21,2.32.02,4.8-.78,7.42-2.38,2.62-1.6,4.59-3.56,5.88-5.88l9.83-16.68Z"/>
      <path d="m413.67,289.69c-.81-1.17-1.2-2.74-1.19-4.71.02-2.9.73-5.57,2.14-8,.71-1.16,1.06-2.26,1.07-3.3.02-2.67-1.66-4.02-5.02-4.04l-58.52-.4c-3.25-.02-4.87-1.43-4.85-4.21,0-1.28.42-2.67,1.25-4.17l44.06-74.95c1.29-2.31,3.25-4.27,5.88-5.88,2.62-1.61,5.1-2.4,7.42-2.39l41.8.29c3.13.02,4.69,1.43,4.67,4.21,0,1.28-.43,2.67-1.25,4.17l-39.12,66.62c-.82,1.51-1.24,2.9-1.25,4.17-.02,2.79,1.54,4.19,4.67,4.21,2.32.02,4.79-.78,7.41-2.39,2.62-1.61,4.58-3.57,5.87-5.89l39.12-66.62c1.29-2.31,3.25-4.27,5.88-5.87,2.62-1.6,5.1-2.4,7.42-2.39l41.82.29c3.14.02,4.69,1.43,4.67,4.21,0,1.28-.43,2.67-1.25,4.17l-81.78,139.49c-1.76,3.01-3.63,4.5-5.6,4.49-1.04,0-1.91-.54-2.6-1.58l-22.72-39.52Z"/>
    </g>
  </g>
</svg>